<svg width="54" height="54" viewBox="0 0 54 54" fill="none" xmlns="http://www.w3.org/2000/svg">
<path d="M54 27C54 12.0883 41.9117 0 27 0C12.0883 0 0 12.0883 0 27C0 41.9117 12.0883 54 27 54C41.9117 54 54 41.9117 54 27Z" fill="#E5E5E5"/>
<g clip-path="url(#clip0)">
<path d="M42.0455 22.3469C39.5342 14.5838 30.967 10.2455 22.9436 12.6748C14.9212 15.1051 10.4377 23.3979 12.9485 31.1609L13.9343 30.8621C11.5934 23.6253 15.7733 15.8941 23.2524 13.6283C26.8755 12.5313 30.7232 12.8651 34.0856 14.5678C37.4494 16.2715 39.9262 19.14 41.0602 22.6458C42.1937 26.1515 41.8493 29.8746 40.0893 33.1295C38.3299 36.3849 35.3658 38.7817 31.7427 39.8791C25.6785 41.7157 19.0313 39.3964 15.574 34.238L14.7074 34.7817C17.5652 39.0466 22.4566 41.5024 27.5272 41.5018C29.0351 41.5018 30.5601 41.2849 32.051 40.8322C35.9369 39.6553 39.1165 37.0841 41.0044 33.5928C42.8924 30.1015 43.2616 26.1075 42.0455 22.3469Z" fill="black"/>
<path d="M24.5041 18.9965L24.8006 18.039L19.6365 16.5398C19.4557 16.4868 19.2579 16.5348 19.1231 16.6652L18.0903 17.6647C17.97 17.7811 17.9168 17.9475 17.9478 18.1095C17.9788 18.2714 18.0903 18.4079 18.2458 18.4748L22.8935 20.4738L23.3128 19.5603L19.3525 17.8566L19.6355 17.5827L24.5041 18.9965Z" fill="black"/>
<path d="M29.3011 16.0196C29.3011 15.7437 29.0702 15.5198 28.7847 15.5198C28.7841 15.5198 28.7841 15.5198 28.7836 15.5198C27.6475 15.5198 26.5791 15.9481 25.7755 16.7258L21.3964 20.9631L19.6143 20.5318C19.4382 20.4893 19.2523 20.5388 19.1237 20.6632L18.0909 21.6627C17.9783 21.7717 17.9236 21.9246 17.9432 22.0771C17.9628 22.2295 18.0537 22.3654 18.1901 22.4444L20.6616 23.8796L22.1447 26.2714C22.2263 26.4034 22.3662 26.4913 22.5242 26.5103C22.5449 26.5128 22.5661 26.5138 22.5873 26.5138C22.7231 26.5138 22.8548 26.4618 22.9529 26.3679L23.9857 25.3684C24.1138 25.244 24.1654 25.0641 24.1215 24.8936L23.6764 23.171L28.1252 18.9081C28.8843 18.139 29.3021 17.1285 29.3011 16.0196ZM22.7401 22.6602C22.6105 22.7842 22.5583 22.9651 22.6022 23.1365L23.0479 24.8611L22.6895 25.2079L21.4806 23.2579C21.4367 23.1875 21.3763 23.1285 21.3035 23.0866L19.2885 21.9166L19.6469 21.5698L21.429 22.0011C21.6051 22.0436 21.791 21.9941 21.9196 21.8697L26.5053 17.4319C26.9804 16.9717 27.5784 16.6733 28.227 16.5649C28.1248 17.1826 27.834 17.7552 27.3878 18.2075L22.7401 22.6602Z" fill="black"/>
<path d="M28.246 24.9376L26.6968 19.8752L25.7063 20.159L27.1621 24.9157L26.8486 25.1836L25.1269 21.3185L24.1783 21.7143L26.1819 26.2121C26.2475 26.359 26.3818 26.4669 26.5434 26.5019C26.5811 26.5099 26.6188 26.5139 26.6565 26.5139C26.781 26.5139 26.9028 26.4705 26.9979 26.389L28.0927 25.4545C28.2434 25.3259 28.3028 25.1245 28.246 24.9376Z" fill="black"/>
<path d="M22.0873 39.5558C18.4095 41.2424 15.5243 41.4603 14.1734 40.1535C11.832 37.8876 14.3748 31.3044 20.0878 24.8397L19.3028 24.19C13.0368 31.2804 10.6267 38.1355 13.4427 40.8601C14.2292 41.6207 15.34 42.0001 16.7177 42.0001C18.3237 42.0001 20.2923 41.4848 22.5294 40.4588L22.0873 39.5558Z" fill="black"/>
<path d="M39.5683 29.2764C39.4784 29.114 39.3034 29.0125 39.1128 29.0125H37.3663L35.9596 26.2904C35.8718 26.121 35.6932 26.014 35.4974 26.014H30.3333C30.0477 26.014 29.8169 26.2379 29.8169 26.5138V30.5118C29.8169 30.7882 30.0478 31.0115 30.3333 31.0115H31.8825V36.5088C31.8825 36.7852 32.1133 37.0085 32.3989 37.0085H34.9809C35.1178 37.0085 35.249 36.956 35.3466 36.8616L37.4122 34.8626C37.5093 34.7691 37.5635 34.6422 37.5635 34.5093V32.6617L39.5424 29.7891C39.6478 29.6362 39.6581 29.4388 39.5683 29.2764ZM36.617 32.2334C36.5607 32.3154 36.5302 32.4123 36.5302 32.5108V34.3029L34.7672 36.009H32.9154H32.9148V30.5118C32.9148 30.2354 32.684 30.012 32.3984 30.012H30.8492V27.0136H35.1778L36.5845 29.7357C36.6723 29.9051 36.8509 30.0121 37.0466 30.0121H38.1476L36.617 32.2334Z" fill="black"/>
<path d="M39.9282 25.0145L38.0113 21.7681C37.9194 21.6122 37.7479 21.5163 37.5631 21.5163H34.4647C34.2922 21.5163 34.1311 21.5997 34.035 21.7386L33.1556 23.0155H31.8826V20.5168H34.4647C34.602 20.5168 34.7327 20.4643 34.8298 20.3703L36.7441 18.5178H39.1123V17.5183H36.5303C36.3929 17.5183 36.2622 17.5708 36.1652 17.6647L34.2509 19.5173H31.3662C31.0806 19.5173 30.8498 19.7412 30.8498 20.017V23.5152C30.8498 23.7911 31.0807 24.015 31.3662 24.015H33.4319C33.6044 24.015 33.7655 23.9315 33.8615 23.7926L34.7409 22.5157H37.2636L39.1805 25.7621C39.2724 25.918 39.4439 26.014 39.6288 26.014H41.6944V25.0145H39.9282Z" fill="black"/>
<path d="M27.2349 30.012H24.3503L22.9524 28.6592C22.8558 28.5652 22.7241 28.5128 22.5873 28.5128H20.0052C19.7202 28.5128 19.4888 28.7362 19.4888 29.0125V32.5108C19.4888 32.7871 19.7202 33.0105 20.0052 33.0105H22.0709V38.008C22.0709 38.1975 22.1814 38.3704 22.3565 38.4553C22.4293 38.4902 22.5088 38.5078 22.5873 38.5078C22.6968 38.5078 22.8058 38.4743 22.8971 38.4078L24.9628 36.9086C25.0929 36.8141 25.1693 36.6657 25.1693 36.5088V35.2494L27.5577 33.4009C27.6801 33.3059 27.7514 33.1625 27.7514 33.0106V30.5118C27.7513 30.2355 27.52 30.012 27.2349 30.012ZM26.7185 32.7707L24.3301 34.6193C24.2077 34.7142 24.1365 34.8576 24.1365 35.0095V36.2589L23.1037 37.0086V32.5108C23.1037 32.2344 22.8723 32.0111 22.5873 32.0111H20.5217V29.5123H22.3735L23.7714 30.8652C23.868 30.9591 23.9996 31.0116 24.1365 31.0116H26.7185V32.7707V32.7707Z" fill="black"/>
<path d="M16.8329 22.7582L15.2837 20.2595C15.1908 20.1091 15.0224 20.0171 14.8412 20.0171H14.3248V21.0166H14.5489L15.7403 22.9381L14.4761 24.1615C14.379 24.2549 14.3248 24.3824 14.3248 24.5148V26.014H12.7755V27.0135H14.8411C15.1261 27.0135 15.3575 26.7896 15.3575 26.5138V24.7217L16.7554 23.3689C16.9228 23.2064 16.9548 22.9551 16.8329 22.7582Z" fill="black"/>
<path d="M28.2682 12.5208V13.1305L26.5935 13.5358C26.5362 13.5498 26.4815 13.5733 26.4324 13.6048L25.1326 14.4434L22.3022 13.0735L21.84 13.9676L24.9384 15.4668C25.0113 15.5018 25.0903 15.5193 25.1693 15.5193C25.2695 15.5193 25.3691 15.4908 25.4554 15.4353L26.9302 14.4838L28.9096 14.0051C29.1394 13.9496 29.3011 13.7497 29.3011 13.5203V12.5208H28.2682Z" fill="black"/>
</g>
<defs>
<clipPath id="clip0">
<rect x="12" y="12" width="31" height="30" fill="white"/>
</clipPath>
</defs>
</svg>
